<?xml version="1.0" encoding="UTF-8" standalone="no"?>
<!-- Created with Inkscape (http://www.inkscape.org/) -->

<svg
   version="1.1"
   id="svg85"
   width="580"
   height="435"
   viewBox="0 0 580 435"
   sodipodi:docname="dice-set-rounded.svg"
   inkscape:version="1.1.2 (0a00cf5339, 2022-02-04)"
   xmlns:inkscape="http://www.inkscape.org/namespaces/inkscape"
   xmlns:sodipodi="http://sodipodi.sourceforge.net/DTD/sodipodi-0.dtd"
   xmlns="http://www.w3.org/2000/svg"
   xmlns:svg="http://www.w3.org/2000/svg">
  <defs
     id="defs89">
    <inkscape:path-effect
       effect="fillet_chamfer"
       id="path-effect57448"
       is_visible="true"
       lpeversion="1"
       satellites_param="F,0,0,1,0,5,0,1 @ F,0,0,1,0,5,0,1 @ F,0,0,1,0,5,0,1"
       unit="px"
       method="auto"
       mode="F"
       radius="5"
       chamfer_steps="1"
       flexible="false"
       use_knot_distance="true"
       apply_no_radius="true"
       apply_with_radius="true"
       only_selected="false"
       hide_knots="false" />
    <inkscape:path-effect
       effect="fillet_chamfer"
       id="path-effect57446"
       is_visible="true"
       lpeversion="1"
       satellites_param="F,0,0,1,0,5,0,1 @ F,0,0,1,0,5,0,1 @ F,0,0,1,0,5,0,1"
       unit="px"
       method="auto"
       mode="F"
       radius="5"
       chamfer_steps="1"
       flexible="false"
       use_knot_distance="true"
       apply_no_radius="true"
       apply_with_radius="true"
       only_selected="false"
       hide_knots="false" />
    <inkscape:path-effect
       effect="fillet_chamfer"
       id="path-effect57444"
       is_visible="true"
       lpeversion="1"
       satellites_param="F,0,0,1,0,5,0,1 @ F,0,0,1,0,5,0,1 @ F,0,0,1,0,5,0,1 @ F,0,0,1,0,5,0,1"
       unit="px"
       method="auto"
       mode="F"
       radius="5"
       chamfer_steps="1"
       flexible="false"
       use_knot_distance="true"
       apply_no_radius="true"
       apply_with_radius="true"
       only_selected="false"
       hide_knots="false" />
    <inkscape:path-effect
       effect="fillet_chamfer"
       id="path-effect57442"
       is_visible="true"
       lpeversion="1"
       satellites_param="F,0,0,1,0,5,0,1 @ F,0,0,1,0,5,0,1 @ F,0,0,1,0,5,0,1 @ F,0,0,1,0,5,0,1"
       unit="px"
       method="auto"
       mode="F"
       radius="5"
       chamfer_steps="1"
       flexible="false"
       use_knot_distance="true"
       apply_no_radius="true"
       apply_with_radius="true"
       only_selected="false"
       hide_knots="false" />
    <inkscape:path-effect
       effect="fillet_chamfer"
       id="path-effect57440"
       is_visible="true"
       lpeversion="1"
       satellites_param="F,0,0,1,0,5,0,1 @ F,0,0,1,0,5,0,1 @ F,0,0,1,0,5,0,1 @ F,0,0,1,0,5,0,1"
       unit="px"
       method="auto"
       mode="F"
       radius="5"
       chamfer_steps="1"
       flexible="false"
       use_knot_distance="true"
       apply_no_radius="true"
       apply_with_radius="true"
       only_selected="false"
       hide_knots="false" />
    <inkscape:path-effect
       effect="fillet_chamfer"
       id="path-effect57438"
       is_visible="true"
       lpeversion="1"
       satellites_param="F,0,0,1,0,5,0,1 @ F,0,0,1,0,5,0,1 @ F,0,0,1,0,5,0,1 @ F,0,0,1,0,5,0,1 @ F,0,0,1,0,5,0,1"
       unit="px"
       method="auto"
       mode="F"
       radius="5"
       chamfer_steps="1"
       flexible="false"
       use_knot_distance="true"
       apply_no_radius="true"
       apply_with_radius="true"
       only_selected="false"
       hide_knots="false" />
    <inkscape:path-effect
       effect="fillet_chamfer"
       id="path-effect57436"
       is_visible="true"
       lpeversion="1"
       satellites_param="F,0,0,1,0,5,0,1 @ F,0,0,1,0,5,0,1 @ F,0,0,1,0,5,0,1 @ F,0,0,1,0,5,0,1 @ F,0,0,1,0,5,0,1"
       unit="px"
       method="auto"
       mode="F"
       radius="5"
       chamfer_steps="1"
       flexible="false"
       use_knot_distance="true"
       apply_no_radius="true"
       apply_with_radius="true"
       only_selected="false"
       hide_knots="false" />
    <inkscape:path-effect
       effect="fillet_chamfer"
       id="path-effect57434"
       is_visible="true"
       lpeversion="1"
       satellites_param="F,0,0,1,0,5,0,1 @ F,0,0,1,0,5,0,1 @ F,0,0,1,0,5,0,1 @ F,0,0,1,0,5,0,1 @ F,0,0,1,0,5,0,1 @ F,0,0,1,0,5,0,1"
       unit="px"
       method="auto"
       mode="F"
       radius="5"
       chamfer_steps="1"
       flexible="false"
       use_knot_distance="true"
       apply_no_radius="true"
       apply_with_radius="true"
       only_selected="false"
       hide_knots="false" />
    <inkscape:path-effect
       effect="fillet_chamfer"
       id="path-effect57432"
       is_visible="true"
       lpeversion="1"
       satellites_param="F,0,0,1,0,5,0,1 @ F,0,0,1,0,5,0,1 @ F,0,0,1,0,5,0,1 @ F,0,0,1,0,5,0,1 @ F,0,0,1,0,5,0,1"
       unit="px"
       method="auto"
       mode="F"
       radius="5"
       chamfer_steps="1"
       flexible="false"
       use_knot_distance="true"
       apply_no_radius="true"
       apply_with_radius="true"
       only_selected="false"
       hide_knots="false" />
    <inkscape:path-effect
       effect="fillet_chamfer"
       id="path-effect57430"
       is_visible="true"
       lpeversion="1"
       satellites_param="F,0,0,1,0,5,0,1 @ F,0,0,1,0,5,0,1 @ F,0,0,1,0,5,0,1 @ F,0,0,1,0,5,0,1 @ F,0,0,1,0,5,0,1"
       unit="px"
       method="auto"
       mode="F"
       radius="5"
       chamfer_steps="1"
       flexible="false"
       use_knot_distance="true"
       apply_no_radius="true"
       apply_with_radius="true"
       only_selected="false"
       hide_knots="false" />
    <inkscape:path-effect
       effect="fillet_chamfer"
       id="path-effect47051"
       is_visible="true"
       lpeversion="1"
       satellites_param="F,0,0,1,0,0,0,1 @ F,0,0,1,0,5,0,1 @ F,0,0,1,0,5,0,1 @ F,0,0,1,0,5,0,1 @ F,0,0,1,0,0,0,1"
       unit="px"
       method="auto"
       mode="F"
       radius="5"
       chamfer_steps="1"
       flexible="false"
       use_knot_distance="true"
       apply_no_radius="true"
       apply_with_radius="true"
       only_selected="false"
       hide_knots="false" />
    <inkscape:path-effect
       effect="fillet_chamfer"
       id="path-effect17374"
       is_visible="true"
       lpeversion="1"
       satellites_param="F,0,0,1,0,0,0,1 @ F,0,0,1,0,0,0,1 @ F,0,0,1,0,0,0,1 @ F,0,0,1,0,0,0,1 @ F,0,0,1,0,0,0,1 @ F,0,0,1,0,5,0,1 @ F,0,0,1,0,0,0,1"
       unit="px"
       method="auto"
       mode="F"
       radius="5"
       chamfer_steps="1"
       flexible="false"
       use_knot_distance="true"
       apply_no_radius="true"
       apply_with_radius="true"
       only_selected="false"
       hide_knots="false" />
    <inkscape:path-effect
       effect="fillet_chamfer"
       id="path-effect17372"
       is_visible="true"
       lpeversion="1"
       satellites_param="F,0,0,1,0,5,0,1 @ F,0,0,1,0,5,0,1 @ F,0,0,1,0,5,0,1"
       unit="px"
       method="auto"
       mode="F"
       radius="5"
       chamfer_steps="1"
       flexible="false"
       use_knot_distance="true"
       apply_no_radius="true"
       apply_with_radius="true"
       only_selected="false"
       hide_knots="false" />
    <inkscape:path-effect
       effect="fillet_chamfer"
       id="path-effect17370"
       is_visible="true"
       lpeversion="1"
       satellites_param="F,0,0,1,0,5,0,1 @ F,0,0,1,0,5,0,1 @ F,0,0,1,0,5,0,1"
       unit="px"
       method="auto"
       mode="F"
       radius="5"
       chamfer_steps="1"
       flexible="false"
       use_knot_distance="true"
       apply_no_radius="true"
       apply_with_radius="true"
       only_selected="false"
       hide_knots="false" />
    <inkscape:path-effect
       effect="fillet_chamfer"
       id="path-effect17368"
       is_visible="true"
       lpeversion="1"
       satellites_param="F,0,0,1,0,5,0,1 @ F,0,0,1,0,5,0,1 @ F,0,0,1,0,5,0,1"
       unit="px"
       method="auto"
       mode="F"
       radius="5"
       chamfer_steps="1"
       flexible="false"
       use_knot_distance="true"
       apply_no_radius="true"
       apply_with_radius="true"
       only_selected="false"
       hide_knots="false" />
    <inkscape:path-effect
       effect="fillet_chamfer"
       id="path-effect17366"
       is_visible="true"
       lpeversion="1"
       satellites_param="F,0,0,1,0,5,0,1 @ F,0,0,1,0,5,0,1 @ F,0,0,1,0,5,0,1"
       unit="px"
       method="auto"
       mode="F"
       radius="5"
       chamfer_steps="1"
       flexible="false"
       use_knot_distance="true"
       apply_no_radius="true"
       apply_with_radius="true"
       only_selected="false"
       hide_knots="false" />
    <inkscape:path-effect
       effect="fillet_chamfer"
       id="path-effect17364"
       is_visible="true"
       lpeversion="1"
       satellites_param="F,0,0,1,0,5,0,1 @ F,0,0,1,0,5,0,1 @ F,0,0,1,0,5,0,1"
       unit="px"
       method="auto"
       mode="F"
       radius="5"
       chamfer_steps="1"
       flexible="false"
       use_knot_distance="true"
       apply_no_radius="true"
       apply_with_radius="true"
       only_selected="false"
       hide_knots="false" />
    <inkscape:path-effect
       effect="fillet_chamfer"
       id="path-effect17362"
       is_visible="true"
       lpeversion="1"
       satellites_param="F,0,0,1,0,5,0,1 @ F,0,0,1,0,5,0,1 @ F,0,0,1,0,5,0,1"
       unit="px"
       method="auto"
       mode="F"
       radius="5"
       chamfer_steps="1"
       flexible="false"
       use_knot_distance="true"
       apply_no_radius="true"
       apply_with_radius="true"
       only_selected="false"
       hide_knots="false" />
    <inkscape:path-effect
       effect="fillet_chamfer"
       id="path-effect17360"
       is_visible="true"
       lpeversion="1"
       satellites_param="F,0,0,1,0,5,0,1 @ F,0,0,1,0,5,0,1 @ F,0,0,1,0,5,0,1"
       unit="px"
       method="auto"
       mode="F"
       radius="5"
       chamfer_steps="1"
       flexible="false"
       use_knot_distance="true"
       apply_no_radius="true"
       apply_with_radius="true"
       only_selected="false"
       hide_knots="false" />
    <inkscape:path-effect
       effect="fillet_chamfer"
       id="path-effect17358"
       is_visible="true"
       lpeversion="1"
       satellites_param="F,0,0,1,0,5,0,1 @ F,0,0,1,0,5,0,1 @ F,0,0,1,0,5,0,1"
       unit="px"
       method="auto"
       mode="F"
       radius="5"
       chamfer_steps="1"
       flexible="false"
       use_knot_distance="true"
       apply_no_radius="true"
       apply_with_radius="true"
       only_selected="false"
       hide_knots="false" />
    <inkscape:path-effect
       effect="fillet_chamfer"
       id="path-effect17356"
       is_visible="true"
       lpeversion="1"
       satellites_param="F,0,0,1,0,5,0,1 @ F,0,0,1,0,5,0,1 @ F,0,0,1,0,5,0,1 @ F,0,0,1,0,5,0,1"
       unit="px"
       method="auto"
       mode="F"
       radius="5"
       chamfer_steps="1"
       flexible="false"
       use_knot_distance="true"
       apply_no_radius="true"
       apply_with_radius="true"
       only_selected="false"
       hide_knots="false" />
    <inkscape:path-effect
       effect="fillet_chamfer"
       id="path-effect17354"
       is_visible="true"
       lpeversion="1"
       satellites_param="F,0,0,1,0,5,0,1 @ F,0,0,1,0,5,0,1 @ F,0,0,1,0,5,0,1"
       unit="px"
       method="auto"
       mode="F"
       radius="5"
       chamfer_steps="1"
       flexible="false"
       use_knot_distance="true"
       apply_no_radius="true"
       apply_with_radius="true"
       only_selected="false"
       hide_knots="false" />
    <inkscape:path-effect
       effect="fillet_chamfer"
       id="path-effect17352"
       is_visible="true"
       lpeversion="1"
       satellites_param="F,0,0,1,0,5,0,1 @ F,0,0,1,0,5,0,1 @ F,0,0,1,0,5,0,1"
       unit="px"
       method="auto"
       mode="F"
       radius="5"
       chamfer_steps="1"
       flexible="false"
       use_knot_distance="true"
       apply_no_radius="true"
       apply_with_radius="true"
       only_selected="false"
       hide_knots="false" />
    <inkscape:path-effect
       effect="fillet_chamfer"
       id="path-effect17350"
       is_visible="true"
       lpeversion="1"
       satellites_param="F,0,0,1,0,5,0,1 @ F,0,0,1,0,5,0,1 @ F,0,0,1,0,5,0,1"
       unit="px"
       method="auto"
       mode="F"
       radius="5"
       chamfer_steps="1"
       flexible="false"
       use_knot_distance="true"
       apply_no_radius="true"
       apply_with_radius="true"
       only_selected="false"
       hide_knots="false" />
    <inkscape:path-effect
       effect="fillet_chamfer"
       id="path-effect17348"
       is_visible="true"
       lpeversion="1"
       satellites_param="F,0,0,1,0,5,0,1 @ F,0,0,1,0,5,0,1 @ F,0,0,1,0,5,0,1"
       unit="px"
       method="auto"
       mode="F"
       radius="5"
       chamfer_steps="1"
       flexible="false"
       use_knot_distance="true"
       apply_no_radius="true"
       apply_with_radius="true"
       only_selected="false"
       hide_knots="false" />
  </defs>
  <sodipodi:namedview
     id="namedview87"
     pagecolor="#ffffff"
     bordercolor="#666666"
     borderopacity="1.0"
     inkscape:pageshadow="2"
     inkscape:pageopacity="0.0"
     inkscape:pagecheckerboard="0"
     showgrid="false"
     inkscape:zoom="1"
     inkscape:cx="550.5"
     inkscape:cy="277"
     inkscape:window-width="1920"
     inkscape:window-height="1011"
     inkscape:window-x="0"
     inkscape:window-y="32"
     inkscape:window-maximized="1"
     inkscape:current-layer="g91" />
  <g
     inkscape:groupmode="layer"
     inkscape:label="Image"
     id="g91">
    <path
       style="font-variation-settings:normal;opacity:1;vector-effect:none;fill:#e2e3db;fill-opacity:1;stroke:none;stroke-width:1px;stroke-linecap:butt;stroke-linejoin:miter;stroke-miterlimit:4;stroke-dasharray:none;stroke-dashoffset:0;stroke-opacity:1;-inkscape-stroke:none;stop-color:#000000;stop-opacity:1"
       d="m 318.5,314.9043 14.50889,-43.17646 a 10.038648,10.038648 135.05101 0 1 6.33506,-6.32379 l 9.43509,-3.15185 a 3.5927424,3.5927424 35.828679 0 1 4.73108,3.41576 l -0.0711,31.42385 a 15.310149,15.310149 108.21564 0 1 -2.97149,9.02954 L 331.39062,332.08984 318.5,314.9043"
       id="path17818"
       inkscape:path-effect="#path-effect47051"
       inkscape:original-d="m 318.5,314.9043 16.10156,-47.91602 18.91987,-6.32031 -0.0937,41.42383 -22.03711,29.99804 L 318.5,314.9043" />
    <path
       id="path7173"
       style="font-variation-settings:normal;opacity:1;vector-effect:none;fill:#e2e3db;fill-opacity:1;stroke:none;stroke-width:1px;stroke-linecap:butt;stroke-linejoin:miter;stroke-miterlimit:4;stroke-dasharray:none;stroke-dashoffset:0;stroke-opacity:1;-inkscape-stroke:none;stop-color:#000000;stop-opacity:1"
       d="m 60.07559,124.00647 c 18.569398,10.88175 37.138798,21.76351 55.7082,32.64527 2.38248,1.39615 4.30736,0.28938 4.29934,-2.47203 L 119.73719,35.132791 c -0.008,-2.761412 -1.29852,-3.166245 -2.88241,-0.904219 -19.408396,27.718061 -38.816788,55.436123 -58.225179,83.154188 -1.583888,2.26203 -0.936496,5.22756 1.445989,6.62371 z"
       inkscape:path-effect="#path-effect57448"
       inkscape:original-d="m 55.761719,121.47852 c 21.445312,12.56705 42.890625,25.13411 64.335941,37.70117 -0.125,-43.01563 -0.25,-86.031252 -0.375,-129.046878 C 98.402344,60.58138 77.082031,91.029948 55.761719,121.47852 Z" />
    <path
       id="path7173-3"
       style="font-variation-settings:normal;vector-effect:none;fill:#e2e3db;fill-opacity:1;stroke:none;stroke-width:1px;stroke-linecap:butt;stroke-linejoin:miter;stroke-miterlimit:4;stroke-dasharray:none;stroke-dashoffset:0;stroke-opacity:1;-inkscape-stroke:none;stop-color:#000000"
       d="m 127.62445,156.6518 c 18.57003,-10.8818 37.14005,-21.7636 55.71009,-32.64539 2.3825,-1.39612 3.02991,-4.36162 1.44602,-6.62365 -19.4084,-27.718065 -38.81679,-55.436126 -58.22518,-83.154187 -1.58389,-2.262026 -2.87442,-1.857194 -2.88249,0.904218 l -0.34773,119.046919 c -0.008,2.76141 1.91679,3.8682 4.29929,2.47209 z"
       inkscape:path-effect="#path-effect57446"
       inkscape:original-d="m 123.31055,159.17969 c 21.44596,-12.56706 42.89192,-25.13412 64.33789,-37.70117 -21.32032,-30.448572 -42.64063,-60.89714 -63.96094,-91.345708 -0.12565,43.015625 -0.2513,86.031248 -0.37695,129.046878 z" />
    <path
       id="path14644"
       style="font-variation-settings:normal;opacity:1;vector-effect:none;fill:#e2e3db;fill-opacity:1;stroke:none;stroke-width:1px;stroke-linecap:butt;stroke-linejoin:miter;stroke-miterlimit:4;stroke-dasharray:none;stroke-dashoffset:0;stroke-opacity:1;-inkscape-stroke:none;stop-color:#000000;stop-opacity:1"
       d="m 240.19885,60.465097 47.34254,27.737775 a 8.5981869,8.5981869 0.18706652 0 0 8.64457,0.02822 l 47.49722,-27.413364 a 2.9075897,2.9075897 90.187066 0 0 0.0164,-5.02697 L 296.35705,28.052988 a 8.5981871,8.5981871 0.18706652 0 0 -8.64457,-0.02822 l -47.49722,27.413363 a 2.9075897,2.9075897 90.187067 0 0 -0.0164,5.02697 z"
       inkscape:path-effect="#path-effect57444"
       inkscape:original-d="m 235.88477,57.9375 c 18.6569,10.93099 37.3138,21.861979 55.9707,32.792969 18.7194,-10.804037 37.4388,-21.608073 56.1582,-32.41211 -18.6569,-10.930989 -37.3138,-21.861979 -55.9707,-32.792968 -18.7194,10.804036 -37.4388,21.608073 -56.1582,32.412109 z" />
    <path
       id="path14646"
       style="font-variation-settings:normal;opacity:1;vector-effect:none;fill:#e2e3db;fill-opacity:1;stroke:none;stroke-width:1px;stroke-linecap:butt;stroke-linejoin:miter;stroke-miterlimit:4;stroke-dasharray:none;stroke-dashoffset:0;stroke-opacity:1;-inkscape-stroke:none;stop-color:#000000;stop-opacity:1"
       d="m 237.44626,129.30221 c 16.02216,9.20933 32.04431,18.41867 48.06647,27.62801 2.39412,1.3761 4.33493,0.25308 4.33493,-2.50834 V 99.193359 A 8.7243235,8.7243235 60.182532 0 0 285.53355,91.66582 L 238.17934,63.92207 a 2.9039524,2.9039524 150.51268 0 0 -4.37173,2.472129 l -0.63866,55.416681 c -0.0318,2.76124 1.88319,6.11523 4.27731,7.49133 z"
       inkscape:path-effect="#path-effect57442"
       inkscape:original-d="m 233.11133,126.81055 c 18.91211,10.87044 37.82422,21.74088 56.73633,32.61133 0,-21.74284 0,-43.48568 0,-65.228521 -18.66081,-10.932942 -37.32162,-21.865885 -55.98243,-32.798828 -0.2513,21.805339 -0.5026,43.610679 -0.7539,65.416019 z" />
    <path
       id="path14648"
       style="font-variation-settings:normal;opacity:1;vector-effect:none;fill:#e2e3db;fill-opacity:1;stroke:none;stroke-width:1px;stroke-linecap:butt;stroke-linejoin:miter;stroke-miterlimit:4;stroke-dasharray:none;stroke-dashoffset:0;stroke-opacity:1;-inkscape-stroke:none;stop-color:#000000;stop-opacity:1"
       d="m 293.84766,99.199219 v 55.212891 c 0,2.76142 1.9376,3.87887 4.32775,2.49588 15.89608,-9.19778 31.79217,-18.39555 47.68825,-27.59332 2.39015,-1.38299 4.32129,-4.74269 4.31333,-7.5041 l -0.15866,-55.021529 a 2.896892,2.896892 29.921854 0 0 -4.34494,-2.500654 l -47.49521,27.411507 a 8.6586956,8.6586956 120.00447 0 0 -4.33052,7.499325 z"
       inkscape:path-effect="#path-effect57440"
       inkscape:original-d="m 293.84766,94.199219 c 0,21.737631 0,43.475261 0,65.212891 18.78125,-10.86719 37.5625,-21.73438 56.34375,-32.60156 -0.0625,-21.67383 -0.125,-43.347659 -0.1875,-65.021488 -18.71875,10.803386 -37.4375,21.606771 -56.15625,32.410157 z" />
    <path
       id="path14923"
       style="font-variation-settings:normal;opacity:1;vector-effect:none;fill:#e2e3db;fill-opacity:1;stroke:none;stroke-width:1px;stroke-linecap:butt;stroke-linejoin:miter;stroke-miterlimit:4;stroke-dasharray:none;stroke-dashoffset:0;stroke-opacity:1;-inkscape-stroke:none;stop-color:#000000;stop-opacity:1"
       d="m 403.64453,63.886719 v 51.230471 c 0,2.76142 1.12237,3.06312 2.50688,0.67385 15.96677,-27.554053 31.93353,-55.108105 47.9003,-82.662157 1.38451,-2.389266 0.56084,-3.219738 -1.83973,-1.854911 l -44.22084,25.141509 a 8.5943354,8.5943354 120.18993 0 0 -4.34661,7.471238 z"
       inkscape:path-effect="#path-effect17352"
       inkscape:original-d="m 403.64453,58.886719 c 0,20.410156 0,40.820312 0,61.230471 17.63802,-30.438154 35.27604,-60.876305 52.91406,-91.314456 -17.63802,10.027995 -35.27604,20.05599 -52.91406,30.083985 z" />
    <path
       id="path14927"
       style="font-variation-settings:normal;opacity:1;vector-effect:none;fill:#e2e3db;fill-opacity:1;stroke:none;stroke-width:1px;stroke-linecap:butt;stroke-linejoin:miter;stroke-miterlimit:4;stroke-dasharray:none;stroke-dashoffset:0;stroke-opacity:1;-inkscape-stroke:none;stop-color:#000000;stop-opacity:1"
       d="m 466.32123,158.25168 c 14.58467,-8.47443 29.16935,-16.94886 43.75403,-25.42328 2.38762,-1.38734 2.08465,-2.52706 -0.67671,-2.54564 l -95.33225,-0.64169 c -2.76136,-0.0186 -3.0707,1.10189 -0.69093,2.50266 14.77124,8.69455 29.54248,17.38909 44.31372,26.08363 2.37977,1.40077 6.24452,1.41165 8.63214,0.0243 z"
       inkscape:path-effect="#path-effect17354"
       inkscape:original-d="m 461.99805,160.76367 c 17.46679,-10.14909 34.93359,-20.29818 52.40039,-30.44726 -35.11068,-0.23633 -70.22136,-0.47266 -105.33203,-0.70899 17.64388,10.38542 35.28776,20.77084 52.93164,31.15625 z" />
    <path
       id="path14962"
       style="font-variation-settings:normal;opacity:1;vector-effect:none;fill:#e2e3db;fill-opacity:1;stroke:none;stroke-width:1px;stroke-linecap:butt;stroke-linejoin:miter;stroke-miterlimit:4;stroke-dasharray:none;stroke-dashoffset:0;stroke-opacity:1;-inkscape-stroke:none;stop-color:#000000;stop-opacity:1"
       d="m 519.91191,115.99466 c 0.24753,-17.172223 0.49506,-34.344443 0.74259,-51.516663 0.0398,-2.761137 -1.86875,-6.115049 -4.26285,-7.491172 L 471.70014,31.298332 c -2.3941,-1.376123 -3.22751,-0.546211 -1.86147,1.85366 15.84258,27.832265 31.68516,55.664531 47.52773,83.496798 1.36604,2.39987 2.50571,2.10701 2.54551,-0.65413 z"
       inkscape:path-effect="#path-effect17348"
       inkscape:original-d="m 519.83984,120.99414 c 0.29558,-20.50521 0.59115,-41.010416 0.88672,-61.515624 -17.78711,-10.223959 -35.57422,-20.447917 -53.36133,-30.671875 17.49154,30.729166 34.98308,61.458333 52.47461,92.187499 z" />
    <path
       id="path14964"
       style="font-variation-settings:normal;opacity:1;vector-effect:none;fill:#e2e3db;fill-opacity:1;stroke:none;stroke-width:1px;stroke-linecap:butt;stroke-linejoin:miter;stroke-miterlimit:4;stroke-dasharray:none;stroke-dashoffset:0;stroke-opacity:1;-inkscape-stroke:none;stop-color:#000000;stop-opacity:1"
       d="m 410.10145,125.61373 c 34.39331,0.23147 68.78661,0.46294 103.17991,0.69442 2.76136,0.0186 3.89247,-1.91182 2.52641,-4.31168 L 464.45004,31.773062 c -1.36606,-2.399858 -3.59583,-2.408433 -4.98031,-0.01915 -17.28711,29.833331 -34.57422,59.666662 -51.86134,89.49999 -1.38448,2.38929 -0.2683,4.34125 2.49306,4.35983 z"
       inkscape:path-effect="#path-effect17350"
       inkscape:original-d="m 405.10156,125.58008 c 37.72657,0.2539 75.45313,0.50781 113.17969,0.76172 C 499.51302,93.370443 480.74479,60.399089 461.97656,27.427734 443.01823,60.145182 424.0599,92.86263 405.10156,125.58008 Z" />
    <path
       id="path15512"
       style="font-variation-settings:normal;opacity:1;vector-effect:none;fill:#e2e3db;fill-opacity:1;stroke:none;stroke-width:1px;stroke-linecap:butt;stroke-linejoin:miter;stroke-miterlimit:4;stroke-dasharray:none;stroke-dashoffset:0;stroke-opacity:1;-inkscape-stroke:none;stop-color:#000000;stop-opacity:1"
       d="m 59.441406,281.30078 c 8.720703,-2.36393 17.441407,-4.72786 26.16211,-7.0918 8.615885,-17.1263 17.231774,-34.2526 25.847654,-51.3789 -17.336587,19.49023 -34.673175,38.98047 -52.009764,58.4707 z" />
    <path
       id="path15514"
       style="font-variation-settings:normal;opacity:1;vector-effect:none;fill:#e2e3db;fill-opacity:1;stroke:none;stroke-width:1px;stroke-linecap:butt;stroke-linejoin:miter;stroke-miterlimit:4;stroke-dasharray:none;stroke-dashoffset:0;stroke-opacity:1;-inkscape-stroke:none;stop-color:#000000;stop-opacity:1"
       d="m 89.744141,274.88086 c 10.119791,4.19596 20.239579,8.39193 30.359379,12.58789 10.17447,-4.06966 20.34895,-8.13932 30.52343,-12.20898 -10.17903,-20.23373 -20.35807,-40.46745 -30.53711,-60.70118 -10.11523,20.10743 -20.230465,40.21485 -30.345699,60.32227 z" />
    <path
       id="path15516"
       style="font-variation-settings:normal;opacity:1;vector-effect:none;fill:#e2e3db;fill-opacity:1;stroke:none;stroke-width:1px;stroke-linecap:butt;stroke-linejoin:miter;stroke-miterlimit:4;stroke-dasharray:none;stroke-dashoffset:0;stroke-opacity:1;-inkscape-stroke:none;stop-color:#000000;stop-opacity:1"
       d="m 154.77734,274.60742 c 8.85612,2.3724 17.71224,4.74479 26.56836,7.11719 -17.55468,-19.66341 -35.10937,-39.32682 -52.66406,-58.99023 8.69857,17.29101 17.39714,34.58203 26.0957,51.87304 z" />
    <path
       id="path15518"
       style="font-variation-settings:normal;opacity:1;vector-effect:none;fill:#e2e3db;fill-opacity:1;stroke:none;stroke-width:1px;stroke-linecap:butt;stroke-linejoin:miter;stroke-miterlimit:4;stroke-dasharray:none;stroke-dashoffset:0;stroke-opacity:1;-inkscape-stroke:none;stop-color:#000000;stop-opacity:1"
       d="m 122.08984,290.98242 c 0,17.7793 0,35.5586 0,53.33789 20.41146,-19.30794 40.82292,-38.61588 61.23438,-57.92383 -9.93555,-2.66211 -19.87109,-5.32421 -29.80664,-7.98632 -10.47591,4.19075 -20.95182,8.38151 -31.42774,12.57226 z" />
    <path
       id="path15520"
       style="font-variation-settings:normal;opacity:1;vector-effect:none;fill:#e2e3db;fill-opacity:1;stroke:none;stroke-width:1px;stroke-linecap:butt;stroke-linejoin:miter;stroke-miterlimit:4;stroke-dasharray:none;stroke-dashoffset:0;stroke-opacity:1;-inkscape-stroke:none;stop-color:#000000;stop-opacity:1"
       d="m 57.417969,285.99219 c 20.223958,19.42708 40.447916,38.85416 60.671871,58.28125 0,-17.76953 0,-35.53906 0,-53.3086 -10.41211,-4.31705 -20.824215,-8.63411 -31.236324,-12.95117 -9.811849,2.65951 -19.623698,5.31901 -29.435547,7.97852 z" />
    <path
       id="path16195"
       style="font-variation-settings:normal;opacity:1;vector-effect:none;fill:#e2e3db;fill-opacity:1;stroke:none;stroke-width:1px;stroke-linecap:butt;stroke-linejoin:miter;stroke-miterlimit:4;stroke-dasharray:none;stroke-dashoffset:0;stroke-opacity:1;-inkscape-stroke:none;stop-color:#000000;stop-opacity:1"
       d="m 247.415,228.81031 c -5.67966,8.02815 -11.35932,16.05631 -17.03899,24.08446 -1.59485,2.25431 -0.75798,4.77128 1.8692,5.62181 3.23171,1.04624 6.46342,2.09248 9.69513,3.13872 2.62718,0.85052 6.57912,0.23968 8.8269,-1.36436 11.06728,-7.89774 22.13457,-15.79548 33.20185,-23.69321 2.24778,-1.60404 4.08842,-5.14287 4.11118,-7.9042 0.0298,-3.6186 0.0597,-7.23721 0.0895,-10.85581 0.0228,-2.76133 -2.09476,-4.32984 -4.72961,-3.50338 -9.45553,2.96591 -18.91106,5.93181 -28.36659,8.89772 -2.63485,0.82647 -6.06369,3.32394 -7.65854,5.57825 z"
       inkscape:path-effect="#path-effect57436"
       inkscape:original-d="m 250.30273,224.72852 c -7.60481,10.74934 -15.20963,21.49869 -22.81445,32.24804 6.403,2.07292 12.80599,4.14584 19.20899,6.21875 13.78059,-9.83398 27.56119,-19.66797 41.34179,-29.50195 0.0573,-6.95182 0.11459,-13.90365 0.17188,-20.85547 -12.63607,3.96354 -25.27214,7.92708 -37.90821,11.89063 z" />
    <path
       id="path16197"
       style="font-variation-settings:normal;opacity:1;vector-effect:none;fill:#e2e3db;fill-opacity:1;stroke:none;stroke-width:1px;stroke-linecap:butt;stroke-linejoin:miter;stroke-miterlimit:4;stroke-dasharray:none;stroke-dashoffset:0;stroke-opacity:1;-inkscape-stroke:none;stop-color:#000000;stop-opacity:1"
       d="m 229.23825,304.86623 c 5.67059,7.54556 11.34119,15.09112 17.01179,22.63668 1.65899,2.20753 4.34129,2.20195 5.99109,-0.0125 2.17844,-2.92397 4.35688,-5.84795 6.53532,-8.77192 1.6498,-2.21441 2.26381,-6.12802 1.37143,-8.74127 -4.35315,-12.74786 -8.70629,-25.49572 -13.05943,-38.24358 -0.89238,-2.61326 -3.74554,-5.4212 -6.37273,-6.27171 -3.22584,-1.04431 -6.45169,-2.08862 -9.67753,-3.13293 -2.62719,-0.85051 -4.75955,0.69859 -4.76278,3.46002 -0.0117,10.02669 -0.0234,20.05339 -0.0352,30.08008 -0.003,2.76143 -0.006,5 -0.006,5 z"
       inkscape:path-effect="#path-effect57434"
       inkscape:original-d="m 226.23438,300.86914 c 7.67317,10.21029 15.34635,20.42057 23.01953,30.63086 4.16992,-5.59701 8.33984,-11.19401 12.50976,-16.79102 -5.43034,-15.90234 -10.86068,-31.80468 -16.29101,-47.70703 -6.39714,-2.07096 -12.79427,-4.14192 -19.19141,-6.21289 -0.0156,13.36003 -0.0312,26.72005 -0.0469,40.08008 z" />
    <path
       id="path16199"
       style="font-variation-settings:normal;opacity:1;vector-effect:none;fill:#e2e3db;fill-opacity:1;stroke:none;stroke-width:1px;stroke-linecap:butt;stroke-linejoin:miter;stroke-miterlimit:4;stroke-dasharray:none;stroke-dashoffset:0;stroke-opacity:1;-inkscape-stroke:none;stop-color:#000000;stop-opacity:1"
       d="m 257.17694,335.57248 28.17151,10.18121 c 2.59702,0.93857 6.82077,0.97595 9.434,0.0835 9.54738,-3.26059 19.09475,-6.52118 28.64213,-9.78177 2.61323,-0.89247 3.38836,-3.40669 1.73131,-5.61568 -2.29599,-3.06072 -4.59197,-6.12145 -6.88795,-9.18218 -1.65705,-2.20899 -5.23892,-4.00843 -8.00032,-4.01916 -13.4232,-0.0521 -26.84641,-0.1043 -40.26961,-0.15645 -2.7614,-0.0107 -6.33732,1.77575 -7.98705,3.99022 -2.18309,2.93042 -4.36617,5.86083 -6.54926,8.79125 -1.64973,2.21447 -0.88178,4.77051 1.71524,5.70908 z"
       inkscape:path-effect="#path-effect57432"
       inkscape:original-d="m 252.47461,333.87305 c 12.52539,4.52669 25.05078,9.05338 37.57617,13.58007 12.70182,-4.33789 25.40365,-8.67578 38.10547,-13.01367 -4.29622,-5.72721 -8.59245,-11.45442 -12.88867,-17.18164 -16.75651,-0.0651 -33.51302,-0.13021 -50.26953,-0.19531 -4.17448,5.60352 -8.34896,11.20703 -12.52344,16.81055 z" />
    <path
       id="path16203"
       style="font-variation-settings:normal;opacity:1;vector-effect:none;fill:#e2e3db;fill-opacity:1;stroke:none;stroke-width:1px;stroke-linecap:butt;stroke-linejoin:miter;stroke-miterlimit:4;stroke-dasharray:none;stroke-dashoffset:0;stroke-opacity:1;-inkscape-stroke:none;stop-color:#000000;stop-opacity:1"
       d="m 296.109,236.60949 c 11.05885,7.89185 22.11768,15.7837 33.17653,23.67555 2.24776,1.60406 6.19318,2.19514 8.81233,1.3202 3.16848,-1.05844 6.33697,-2.11688 9.50545,-3.17533 2.61915,-0.87493 3.45463,-3.41531 1.86611,-5.67408 -5.61242,-7.98045 -11.22485,-15.9609 -16.83728,-23.94136 -1.58852,-2.25877 -5.01034,-4.76587 -7.64285,-5.59978 -9.33661,-2.95758 -18.67322,-5.91516 -28.00983,-8.87274 -2.63251,-0.83391 -4.7852,0.72858 -4.80819,3.48991 -0.0302,3.62446 -0.0604,7.24893 -0.0906,10.87339 -0.023,2.76133 1.78053,6.30018 4.02829,7.90424 z"
       inkscape:path-effect="#path-effect57438"
       inkscape:original-d="m 292.03906,233.70508 c 13.77214,9.82812 27.54427,19.65625 41.31641,29.48437 6.33008,-2.11458 12.66015,-4.22916 18.99023,-6.34375 -7.52994,-10.70703 -15.05989,-21.41406 -22.58984,-32.12109 -12.51432,-3.96419 -25.02865,-7.92839 -37.54297,-11.89258 -0.0579,6.95768 -0.11588,13.91537 -0.17383,20.87305 z" />
    <path
       id="path16205"
       style="font-variation-settings:normal;opacity:1;vector-effect:none;fill:#e2e3db;fill-opacity:1;stroke:none;stroke-width:1px;stroke-linecap:butt;stroke-linejoin:miter;stroke-miterlimit:4;stroke-dasharray:none;stroke-dashoffset:0;stroke-opacity:1;-inkscape-stroke:none;stop-color:#000000;stop-opacity:1"
       d="m 251.03171,270.90364 c 4.26011,12.47635 8.52022,24.9527 12.78034,37.42905 0.89231,2.61328 3.85424,4.74043 6.61564,4.75113 13.13544,0.0509 26.27089,0.10178 39.40633,0.15267 2.7614,0.0107 5.71293,-2.10263 6.59242,-4.72026 4.21115,-12.53361 8.4223,-25.06721 12.63344,-37.60082 0.87949,-2.61763 -0.22975,-6.03992 -2.47757,-7.64391 -10.82701,-7.72592 -21.65402,-15.45185 -32.48103,-23.17777 -2.24782,-1.60399 -5.89224,-1.60398 -8.14005,2e-5 l -32.47519,23.17383 c -2.24781,1.604 -3.34665,5.02278 -2.45433,7.63606 z"
       inkscape:path-effect="#path-effect57430"
       inkscape:original-d="m 249.41602,266.17188 c 5.33724,15.63085 10.67447,31.26171 16.01171,46.89257 16.46875,0.0638 32.9375,0.12761 49.40625,0.19141 5.27279,-15.69336 10.54558,-31.38672 15.81836,-47.08008 -13.54036,-9.66211 -27.08073,-19.32422 -40.62109,-28.98633 -13.53841,9.66081 -27.07682,19.32162 -40.61523,28.98243 z" />
    <path
       id="path17038"
       style="font-variation-settings:normal;opacity:1;vector-effect:none;fill:#e2e3db;fill-opacity:1;stroke:none;stroke-width:1px;stroke-linecap:butt;stroke-linejoin:miter;stroke-miterlimit:4;stroke-dasharray:none;stroke-dashoffset:0;stroke-opacity:1;-inkscape-stroke:none;stop-color:#000000;stop-opacity:1"
       d="m 405.69147,305.89804 6.69323,-5.60272 a 6.9849283,6.9849283 104.4721 0 0 2.03211,-7.87339 l -13.1012,-33.91026 a 0.82305427,0.82305427 168.22367 0 0 -1.59006,0.3315 l 1.91999,45.26874 a 2.4655569,2.4655569 23.819782 0 0 4.04593,1.78613 z"
       inkscape:path-effect="#path-effect17370"
       inkscape:original-d="m 401.85742,309.10742 c 4.78711,-4.00716 9.57422,-8.01432 14.36133,-12.02148 -5.56836,-14.41276 -11.13672,-28.82552 -16.70508,-43.23828 0.78125,18.41992 1.5625,36.83984 2.34375,55.25976 z" />
    <path
       id="path17040"
       style="font-variation-settings:normal;opacity:1;vector-effect:none;fill:#e2e3db;fill-opacity:1;stroke:none;stroke-width:1px;stroke-linecap:butt;stroke-linejoin:miter;stroke-miterlimit:4;stroke-dasharray:none;stroke-dashoffset:0;stroke-opacity:1;-inkscape-stroke:none;stop-color:#000000;stop-opacity:1"
       d="m 401.4678,247.80665 c 5.22524,13.52603 10.45049,27.05207 15.67573,40.57811 0.9951,2.57589 2.90897,2.71847 4.27475,0.31845 10.7231,-18.84316 21.4462,-37.68631 32.1693,-56.52947 1.36578,-2.40002 0.31263,-3.75896 -2.35228,-3.03528 -15.58134,4.23126 -31.16269,8.46252 -46.74403,12.69378 -2.66491,0.72368 -4.01857,3.39852 -3.02347,5.97441 z"
       inkscape:path-effect="#path-effect17368"
       inkscape:original-d="m 399.66602,243.14258 c 6.42643,16.63541 12.85286,33.27083 19.27929,49.90625 12.37175,-21.74024 24.74349,-43.48047 37.11524,-65.22071 -18.79818,5.10482 -37.59636,10.20964 -56.39453,15.31446 z" />
    <path
       id="path17042"
       style="font-variation-settings:normal;opacity:1;vector-effect:none;fill:#e2e3db;fill-opacity:1;stroke:none;stroke-width:1px;stroke-linecap:butt;stroke-linejoin:miter;stroke-miterlimit:4;stroke-dasharray:none;stroke-dashoffset:0;stroke-opacity:1;-inkscape-stroke:none;stop-color:#000000;stop-opacity:1"
       d="m 419.85061,233.51769 c 11.16665,-3.03263 22.3333,-6.06525 33.49995,-9.09788 2.66489,-0.72373 4.82522,-3.54901 4.82522,-6.31043 v -0.3379 c 0,-2.76142 -1.99327,-3.98113 -4.45209,-2.72428 -11.4154,5.83507 -22.83081,11.67014 -34.24621,17.5052 -2.45882,1.25685 -2.29176,1.68902 0.37313,0.96529 z"
       inkscape:path-effect="#path-effect17366"
       inkscape:original-d="m 415.02539,234.82812 c 14.38346,-3.90625 28.76693,-7.81249 43.15039,-11.71874 0,-3.44597 0,-6.89193 0,-10.3379 -14.38346,7.35222 -28.76693,14.70443 -43.15039,22.05664 z" />
    <path
       id="path17044"
       style="font-variation-settings:normal;opacity:1;vector-effect:none;fill:#e2e3db;fill-opacity:1;stroke:none;stroke-width:1px;stroke-linecap:butt;stroke-linejoin:miter;stroke-miterlimit:4;stroke-dasharray:none;stroke-dashoffset:0;stroke-opacity:1;-inkscape-stroke:none;stop-color:#000000;stop-opacity:1"
       d="m 467.00386,224.40532 c 11.12112,2.99411 22.24225,5.98822 33.36337,8.98233 2.66647,0.71789 2.83354,0.28347 0.37314,-0.97029 -11.36988,-5.79386 -22.73977,-11.58773 -34.10966,-17.38159 -2.46039,-1.25377 -4.45493,-0.0316 -4.45493,2.72985 l 0,0.33985 c 0,2.76142 2.16161,5.58196 4.82808,6.29985 z"
       inkscape:path-effect="#path-effect17364"
       inkscape:original-d="m 462.17578,223.10547 c 14.33984,3.86068 28.67969,7.72135 43.01953,11.58203 -14.33984,-7.30729 -28.67969,-14.61458 -43.01953,-21.92188 0,3.44662 0,6.89323 0,10.33985 z" />
    <path
       id="path17046"
       style="font-variation-settings:normal;opacity:1;vector-effect:none;fill:#e2e3db;fill-opacity:1;stroke:none;stroke-width:1px;stroke-linecap:butt;stroke-linejoin:miter;stroke-miterlimit:4;stroke-dasharray:none;stroke-dashoffset:0;stroke-opacity:1;-inkscape-stroke:none;stop-color:#000000;stop-opacity:1"
       d="m 502.68606,287.44825 c 5.30565,-13.28842 10.61129,-26.57683 15.91694,-39.86525 1.02395,-2.56456 -0.30758,-5.2255 -2.97406,-5.94336 -15.50588,-4.17447 -31.01177,-8.34895 -46.51765,-12.52342 -2.66648,-0.71786 -3.72155,0.64616 -2.35657,3.04664 10.53527,18.5275 21.07053,37.05499 31.6058,55.58249 1.36498,2.40048 3.30159,2.26746 4.32554,-0.2971 z"
       inkscape:path-effect="#path-effect17358"
       inkscape:original-d="m 500.83203,292.0918 c 6.54167,-16.38412 13.08333,-32.76823 19.625,-49.15235 -18.72461,-5.04101 -37.44922,-10.08203 -56.17383,-15.12304 12.18295,21.42513 24.36589,42.85026 36.54883,64.27539 z" />
    <path
       id="path17048"
       style="font-variation-settings:normal;opacity:1;vector-effect:none;fill:#e2e3db;fill-opacity:1;stroke:none;stroke-width:1px;stroke-linecap:butt;stroke-linejoin:miter;stroke-miterlimit:4;stroke-dasharray:none;stroke-dashoffset:0;stroke-opacity:1;-inkscape-stroke:none;stop-color:#000000;stop-opacity:1"
       d="m 507.32305,299.37311 7.18789,6.19324 c 2.092,1.80251 3.88265,1.02716 3.99954,-1.73179 0.64405,-15.20155 1.28811,-30.40311 1.93217,-45.60466 0.11689,-2.75895 -0.61845,-2.91654 -1.64242,-0.35199 -4.47033,11.19598 -8.94067,22.39196 -13.411,33.58793 -1.02397,2.56456 -0.15818,6.10476 1.93382,7.90727 z"
       inkscape:path-effect="#path-effect17360"
       inkscape:original-d="m 503.53516,296.10938 c 4.92122,4.24023 9.84244,8.48046 14.76367,12.7207 0.78515,-18.5319 1.57031,-37.0638 2.35547,-55.5957 -5.70638,14.29166 -11.41276,28.58333 -17.11914,42.875 z" />
    <path
       id="path17052"
       style="font-variation-settings:normal;opacity:1;vector-effect:none;fill:#e2e3db;fill-opacity:1;stroke:none;stroke-width:1px;stroke-linecap:butt;stroke-linejoin:miter;stroke-miterlimit:4;stroke-dasharray:none;stroke-dashoffset:0;stroke-opacity:1;-inkscape-stroke:none;stop-color:#000000;stop-opacity:1"
       d="m 473.03303,339.11614 c 13.13684,-7.92639 26.27366,-15.85277 39.41049,-23.77915 2.36438,-1.4266 2.58521,-4.04431 0.49322,-5.84683 -2.57045,-2.21479 -5.14092,-4.42959 -7.71137,-6.64438 -2.09199,-1.80252 -5.16033,-1.49526 -6.85335,0.68629 -8.85153,11.4057 -17.70306,22.81141 -26.55459,34.21711 -1.69302,2.18155 -1.14877,2.79355 1.2156,1.36696 z"
       inkscape:path-effect="#path-effect17362"
       inkscape:original-d="m 468.75195,341.69922 c 15.99089,-9.64844 31.98177,-19.29688 47.97266,-28.94531 -5.0957,-4.39063 -10.19141,-8.78125 -15.28711,-13.17188 -10.89518,14.03906 -21.79036,28.07813 -32.68555,42.11719 z" />
    <path
       id="path17054"
       style="font-variation-settings:normal;opacity:1;vector-effect:none;fill:#e2e3db;fill-opacity:1;stroke:none;stroke-width:1px;stroke-linecap:butt;stroke-linejoin:miter;stroke-miterlimit:4;stroke-dasharray:none;stroke-dashoffset:0;stroke-opacity:1;-inkscape-stroke:none;stop-color:#000000;stop-opacity:1"
       d="m 407.79267,315.49974 c 13.26713,7.82765 26.53425,15.65529 39.80138,23.48294 2.37833,1.40322 2.88805,0.8088 1.1385,-1.32767 l -27.23268,-33.25533 c -1.74955,-2.13647 -4.88436,-2.43149 -7.00178,-0.65893 -2.39261,2.00291 -4.78521,4.00582 -7.17781,6.00874 -2.11743,1.77255 -1.90594,4.34703 0.47239,5.75025 z"
       inkscape:path-effect="#path-effect17372"
       inkscape:original-d="m 403.48633,312.95898 c 16.13802,9.52149 32.27604,19.04297 48.41406,28.56446 -11.18945,-13.66406 -22.37891,-27.32813 -33.56836,-40.99219 -4.94857,4.14258 -9.89713,8.28516 -14.8457,12.42773 z" />
    <path
       id="path17056"
       style="font-variation-settings:normal;opacity:1;vector-effect:none;fill:#e2e3db;fill-opacity:1;stroke:none;stroke-width:1px;stroke-linecap:butt;stroke-linejoin:miter;stroke-miterlimit:4;stroke-dasharray:none;stroke-dashoffset:0;stroke-opacity:1;-inkscape-stroke:none;stop-color:#000000;stop-opacity:1"
       d="m 424.18534,301.36459 c 11.06134,13.50824 22.12267,27.01648 33.18401,40.52472 1.74951,2.13651 4.54028,2.10005 6.23336,-0.0815 l 32.08169,-41.33643 c 1.69308,-2.1815 1.95907,-5.89593 0.5941,-8.29641 -11.2104,-19.71499 -22.42082,-39.42998 -33.63122,-59.14497 -1.36497,-2.40048 -3.57866,-2.40085 -4.94442,-8.1e-4 -11.40412,20.0404 -22.80824,40.0808 -34.21236,60.1212 -1.36576,2.40004 -1.05467,6.07764 0.69484,8.21415 z"
       inkscape:path-effect="#path-effect17356"
       inkscape:original-d="m 421.01758,297.49609 c 13.17318,16.08724 26.34635,32.17448 39.51953,48.26172 12.73763,-16.41211 25.47526,-32.82422 38.21289,-49.23633 -12.85807,-22.61263 -25.71615,-45.22526 -38.57422,-67.83789 -13.05273,22.9375 -26.10547,45.875 -39.1582,68.8125 z" />
  </g>
</svg>
